<svg width="188" height="28" viewBox="0 0 188 28" fill="none" xmlns="http://www.w3.org/2000/svg">
<path d="M4.24432 27H0.920455L10.5341 0.818181H13.8068L23.4205 27H20.0966L12.2727 4.96023H12.0682L4.24432 27ZM5.47159 16.7727H18.8693V19.5852H5.47159V16.7727ZM47.3363 9H44.1658C43.9783 8.08807 43.6502 7.28693 43.1815 6.59659C42.7212 5.90625 42.1587 5.3267 41.494 4.85795C40.8377 4.38068 40.109 4.02273 39.3079 3.78409C38.5067 3.54545 37.6715 3.42614 36.8022 3.42614C35.217 3.42614 33.7809 3.8267 32.494 4.62784C31.2156 5.42898 30.1971 6.60938 29.4386 8.16903C28.6886 9.72869 28.3136 11.642 28.3136 13.9091C28.3136 16.1761 28.6886 18.0895 29.4386 19.6491C30.1971 21.2088 31.2156 22.3892 32.494 23.1903C33.7809 23.9915 35.217 24.392 36.8022 24.392C37.6715 24.392 38.5067 24.2727 39.3079 24.0341C40.109 23.7955 40.8377 23.4418 41.494 22.973C42.1587 22.4957 42.7212 21.9119 43.1815 21.2216C43.6502 20.5227 43.9783 19.7216 44.1658 18.8182H47.3363C47.0977 20.1562 46.663 21.3537 46.0323 22.4105C45.4016 23.4673 44.6175 24.3665 43.68 25.108C42.7425 25.8409 41.69 26.3991 40.5224 26.7827C39.3633 27.1662 38.1232 27.358 36.8022 27.358C34.5692 27.358 32.5835 26.8125 30.8448 25.7216C29.1062 24.6307 27.7383 23.0795 26.7411 21.0682C25.744 19.0568 25.2454 16.6705 25.2454 13.9091C25.2454 11.1477 25.744 8.76136 26.7411 6.75C27.7383 4.73864 29.1062 3.1875 30.8448 2.09659C32.5835 1.00568 34.5692 0.460226 36.8022 0.460226C38.1232 0.460226 39.3633 0.651988 40.5224 1.03551C41.69 1.41903 42.7425 1.98153 43.68 2.72301C44.6175 3.45596 45.4016 4.35085 46.0323 5.40767C46.663 6.45596 47.0977 7.65341 47.3363 9ZM69.6413 0.818181H72.8118V18.1534C72.8118 19.9432 72.3899 21.5412 71.5462 22.9474C70.7109 24.3452 69.5305 25.4489 68.005 26.2585C66.4794 27.0597 64.6896 27.4602 62.6357 27.4602C60.5817 27.4602 58.7919 27.0597 57.2663 26.2585C55.7408 25.4489 54.5561 24.3452 53.7124 22.9474C52.8771 21.5412 52.4595 19.9432 52.4595 18.1534V0.818181H55.63V17.8977C55.63 19.1761 55.9112 20.3139 56.4737 21.3111C57.0362 22.2997 57.8374 23.0795 58.8771 23.6506C59.9254 24.2131 61.1783 24.4943 62.6357 24.4943C64.093 24.4943 65.3459 24.2131 66.3942 23.6506C67.4425 23.0795 68.2436 22.2997 68.7976 21.3111C69.3601 20.3139 69.6413 19.1761 69.6413 17.8977V0.818181ZM79.1431 27V0.818181H87.9897C90.0437 0.818181 91.7227 1.18892 93.0266 1.9304C94.3391 2.66335 95.3107 3.65625 95.9414 4.90909C96.5721 6.16193 96.8874 7.55966 96.8874 9.10227C96.8874 10.6449 96.5721 12.0469 95.9414 13.3082C95.3192 14.5696 94.3562 15.5753 93.0522 16.3253C91.7482 17.0668 90.0778 17.4375 88.0408 17.4375H81.6999V14.625H87.9386C89.3448 14.625 90.4741 14.3821 91.3264 13.8963C92.1786 13.4105 92.7965 12.7543 93.18 11.9276C93.5721 11.0923 93.7681 10.1506 93.7681 9.10227C93.7681 8.05398 93.5721 7.11648 93.18 6.28977C92.7965 5.46307 92.1744 4.81534 91.3136 4.34659C90.4528 3.86932 89.3107 3.63068 87.8874 3.63068H82.3136V27H79.1431ZM101.995 27V0.818181H110.841C112.887 0.818181 114.566 1.16761 115.878 1.86648C117.191 2.55682 118.162 3.5071 118.793 4.71733C119.424 5.92756 119.739 7.30398 119.739 8.84659C119.739 10.3892 119.424 11.7571 118.793 12.9503C118.162 14.1435 117.195 15.081 115.891 15.7628C114.587 16.4361 112.921 16.7727 110.892 16.7727H103.733V13.9091H110.79C112.188 13.9091 113.313 13.7045 114.165 13.2955C115.026 12.8864 115.648 12.3068 116.032 11.5568C116.424 10.7983 116.62 9.89489 116.62 8.84659C116.62 7.79829 116.424 6.8821 116.032 6.09801C115.64 5.31392 115.013 4.70881 114.152 4.28267C113.292 3.84801 112.154 3.63068 110.739 3.63068H105.165V27H101.995ZM114.319 15.2386L120.762 27H117.08L110.739 15.2386H114.319ZM125.022 27V0.818181H140.823V3.63068H128.192V12.4773H140.005V15.2898H128.192V24.1875H141.028V27H125.022ZM160.856 7.36364C160.702 6.06818 160.08 5.0625 158.989 4.34659C157.898 3.63068 156.56 3.27273 154.975 3.27273C153.816 3.27273 152.802 3.46023 151.933 3.83523C151.072 4.21023 150.398 4.72585 149.913 5.3821C149.435 6.03835 149.197 6.78409 149.197 7.61932C149.197 8.31818 149.363 8.91903 149.695 9.42188C150.036 9.91619 150.471 10.3295 150.999 10.6619C151.528 10.9858 152.082 11.2543 152.661 11.4673C153.241 11.6719 153.773 11.8381 154.259 11.9659L156.918 12.6818C157.6 12.8608 158.359 13.108 159.194 13.4233C160.038 13.7386 160.843 14.169 161.61 14.7145C162.386 15.2514 163.025 15.9418 163.528 16.7855C164.031 17.6293 164.282 18.6648 164.282 19.892C164.282 21.3068 163.911 22.5852 163.17 23.7273C162.437 24.8693 161.363 25.777 159.948 26.4503C158.542 27.1236 156.833 27.4602 154.822 27.4602C152.947 27.4602 151.323 27.1577 149.951 26.5526C148.587 25.9474 147.513 25.1037 146.729 24.0213C145.954 22.9389 145.515 21.6818 145.413 20.25H148.685C148.771 21.2386 149.103 22.0568 149.683 22.7045C150.271 23.3437 151.012 23.821 151.907 24.1364C152.81 24.4432 153.782 24.5966 154.822 24.5966C156.032 24.5966 157.119 24.4006 158.082 24.0085C159.045 23.608 159.808 23.054 160.37 22.3466C160.933 21.6307 161.214 20.7955 161.214 19.8409C161.214 18.9716 160.971 18.2642 160.485 17.7188C159.999 17.1733 159.36 16.7301 158.567 16.3892C157.775 16.0483 156.918 15.75 155.998 15.4943L152.776 14.5739C150.731 13.9858 149.112 13.1463 147.918 12.0554C146.725 10.9645 146.129 9.53693 146.129 7.77273C146.129 6.30682 146.525 5.02841 147.317 3.9375C148.119 2.83807 149.192 1.98579 150.539 1.38068C151.894 0.767045 153.407 0.460226 155.077 0.460226C156.765 0.460226 158.265 0.762783 159.577 1.3679C160.89 1.96449 161.93 2.78267 162.697 3.82244C163.472 4.86221 163.881 6.04261 163.924 7.36364H160.856ZM183.813 7.36364C183.659 6.06818 183.037 5.0625 181.946 4.34659C180.855 3.63068 179.517 3.27273 177.932 3.27273C176.773 3.27273 175.759 3.46023 174.89 3.83523C174.029 4.21023 173.355 4.72585 172.87 5.3821C172.392 6.03835 172.154 6.78409 172.154 7.61932C172.154 8.31818 172.32 8.91903 172.652 9.42188C172.993 9.91619 173.428 10.3295 173.956 10.6619C174.485 10.9858 175.039 11.2543 175.618 11.4673C176.198 11.6719 176.73 11.8381 177.216 11.9659L179.875 12.6818C180.557 12.8608 181.316 13.108 182.151 13.4233C182.995 13.7386 183.8 14.169 184.567 14.7145C185.343 15.2514 185.982 15.9418 186.485 16.7855C186.988 17.6293 187.239 18.6648 187.239 19.892C187.239 21.3068 186.868 22.5852 186.127 23.7273C185.394 24.8693 184.32 25.777 182.905 26.4503C181.499 27.1236 179.79 27.4602 177.779 27.4602C175.904 27.4602 174.28 27.1577 172.908 26.5526C171.544 25.9474 170.471 25.1037 169.686 24.0213C168.911 22.9389 168.472 21.6818 168.37 20.25H171.642C171.728 21.2386 172.06 22.0568 172.64 22.7045C173.228 23.3437 173.969 23.821 174.864 24.1364C175.767 24.4432 176.739 24.5966 177.779 24.5966C178.989 24.5966 180.076 24.4006 181.039 24.0085C182.002 23.608 182.765 23.054 183.327 22.3466C183.89 21.6307 184.171 20.7955 184.171 19.8409C184.171 18.9716 183.928 18.2642 183.442 17.7188C182.956 17.1733 182.317 16.7301 181.525 16.3892C180.732 16.0483 179.875 15.75 178.955 15.4943L175.733 14.5739C173.688 13.9858 172.069 13.1463 170.875 12.0554C169.682 10.9645 169.086 9.53693 169.086 7.77273C169.086 6.30682 169.482 5.02841 170.275 3.9375C171.076 2.83807 172.15 1.98579 173.496 1.38068C174.851 0.767045 176.364 0.460226 178.034 0.460226C179.722 0.460226 181.222 0.762783 182.534 1.3679C183.847 1.96449 184.887 2.78267 185.654 3.82244C186.429 4.86221 186.838 6.04261 186.881 7.36364H183.813Z" fill="black"/>
</svg>
