<svg width="100" height="100" viewBox="0 0 100 100" fill="none" xmlns="http://www.w3.org/2000/svg">
<path d="M76.4844 23.5156C74.4393 21.4703 71.6672 20.3182 68.7748 20.3117C65.8824 20.3051 63.1052 21.4444 61.0508 23.4805L56.5156 28.2344C56.0956 28.6985 55.5869 29.0737 55.0196 29.3381C54.4522 29.6024 53.8376 29.7504 53.2121 29.7734C52.5866 29.7963 51.9628 29.6938 51.3776 29.4718C50.7923 29.2498 50.2575 28.9129 49.8046 28.4808C49.3517 28.0488 48.9899 27.5304 48.7405 26.9563C48.4912 26.3822 48.3594 25.7639 48.3528 25.138C48.3463 24.5121 48.4652 23.8913 48.7024 23.3121C48.9397 22.7329 49.2906 22.207 49.7344 21.7656L54.2969 16.9648L54.375 16.8867C58.1844 13.0773 63.351 10.9373 68.7383 10.9373C74.1256 10.9373 79.2922 13.0773 83.1016 16.8867C86.9109 20.6961 89.051 25.8627 89.051 31.25C89.051 36.6373 86.9109 41.8039 83.1016 45.6133L83.0234 45.6914L78.2227 50.2656C77.3167 51.0855 76.1264 51.5193 74.9053 51.4744C73.6842 51.4296 72.5289 50.9097 71.6855 50.0256C70.8421 49.1414 70.3773 47.9629 70.3901 46.7411C70.4028 45.5192 70.8922 44.3507 71.7539 43.4844L76.5078 38.9492C78.5454 36.8964 79.6869 34.12 79.6825 31.2276C79.6781 28.3352 78.5282 25.5623 76.4844 23.5156ZM43.4844 71.7656L38.9492 76.5195C36.8979 78.5708 34.1158 79.7232 31.2148 79.7232C28.3139 79.7232 25.5318 78.5708 23.4805 76.5195C21.4292 74.4682 20.2768 71.6861 20.2768 68.7852C20.2768 65.8842 21.4292 63.1021 23.4805 61.0508L28.2344 56.5156C29.0961 55.6493 29.5854 54.4808 29.5982 53.2589C29.611 52.0371 29.1462 50.8586 28.3028 49.9744C27.4594 49.0903 26.3041 48.5704 25.083 48.5256C23.8619 48.4807 22.6716 48.9145 21.7656 49.7344L16.9648 54.2969L16.8867 54.375C13.0773 58.1844 10.9373 63.351 10.9373 68.7383C10.9373 74.1256 13.0773 79.2922 16.8867 83.1016C20.6961 86.9109 25.8627 89.051 31.25 89.051C36.6373 89.051 41.8039 86.9109 45.6133 83.1016L45.6914 83.0234L50.2656 78.2227C50.7094 77.7812 51.0603 77.2554 51.2976 76.6762C51.5348 76.097 51.6537 75.4761 51.6472 74.8502C51.6406 74.2244 51.5088 73.6061 51.2595 73.032C51.0101 72.4579 50.6483 71.9395 50.1954 71.5075C49.7425 71.0754 49.2077 70.7385 48.6224 70.5165C48.0372 70.2945 47.4134 70.1919 46.7879 70.2149C46.1624 70.2379 45.5478 70.3859 44.9805 70.6502C44.4131 70.9145 43.9044 71.2898 43.4844 71.7539V71.7656ZM84.375 57.8125H75C73.7568 57.8125 72.5645 58.3064 71.6854 59.1854C70.8064 60.0645 70.3125 61.2568 70.3125 62.5C70.3125 63.7432 70.8064 64.9355 71.6854 65.8146C72.5645 66.6936 73.7568 67.1875 75 67.1875H84.375C85.6182 67.1875 86.8105 66.6936 87.6896 65.8146C88.5686 64.9355 89.0625 63.7432 89.0625 62.5C89.0625 61.2568 88.5686 60.0645 87.6896 59.1854C86.8105 58.3064 85.6182 57.8125 84.375 57.8125ZM15.625 42.1875H25C26.2432 42.1875 27.4355 41.6936 28.3146 40.8146C29.1936 39.9355 29.6875 38.7432 29.6875 37.5C29.6875 36.2568 29.1936 35.0645 28.3146 34.1854C27.4355 33.3064 26.2432 32.8125 25 32.8125H15.625C14.3818 32.8125 13.1895 33.3064 12.3104 34.1854C11.4314 35.0645 10.9375 36.2568 10.9375 37.5C10.9375 38.7432 11.4314 39.9355 12.3104 40.8146C13.1895 41.6936 14.3818 42.1875 15.625 42.1875ZM62.5 70.3125C61.2568 70.3125 60.0645 70.8064 59.1854 71.6854C58.3064 72.5645 57.8125 73.7568 57.8125 75V84.375C57.8125 85.6182 58.3064 86.8105 59.1854 87.6896C60.0645 88.5686 61.2568 89.0625 62.5 89.0625C63.7432 89.0625 64.9355 88.5686 65.8146 87.6896C66.6936 86.8105 67.1875 85.6182 67.1875 84.375V75C67.1875 73.7568 66.6936 72.5645 65.8146 71.6854C64.9355 70.8064 63.7432 70.3125 62.5 70.3125ZM37.5 29.6875C38.7432 29.6875 39.9355 29.1936 40.8146 28.3146C41.6936 27.4355 42.1875 26.2432 42.1875 25V15.625C42.1875 14.3818 41.6936 13.1895 40.8146 12.3104C39.9355 11.4314 38.7432 10.9375 37.5 10.9375C36.2568 10.9375 35.0645 11.4314 34.1854 12.3104C33.3064 13.1895 32.8125 14.3818 32.8125 15.625V25C32.8125 26.2432 33.3064 27.4355 34.1854 28.3146C35.0645 29.1936 36.2568 29.6875 37.5 29.6875Z" fill="black"/>
</svg>
