<svg width="100" height="100" viewBox="0 0 100 100" fill="none" xmlns="http://www.w3.org/2000/svg">
<rect width="100" height="100" fill="#F5F5F5"/>
<path d="M80.9356 19.0645C76.8803 14.9691 72.0558 11.7153 66.7392 9.49007C61.4227 7.26485 55.7188 6.11204 49.9554 6.09785C44.192 6.08366 38.4825 7.20839 33.1551 9.40741C27.8276 11.6064 22.9872 14.8364 18.9118 18.9118C14.8364 22.9872 11.6064 27.8276 9.40741 33.1551C7.20839 38.4825 6.08366 44.192 6.09785 49.9554C6.11204 55.7188 7.26485 61.4227 9.49007 66.7392C11.7153 72.0558 14.9691 76.8803 19.0645 80.9356C23.1197 85.0309 27.9442 88.2847 33.2608 90.5099C38.5773 92.7352 44.2812 93.888 50.0446 93.9022C55.808 93.9163 61.5175 92.7916 66.8449 90.5926C72.1724 88.3936 77.0128 85.1636 81.0882 81.0882C85.1636 77.0128 88.3936 72.1724 90.5926 66.8449C92.7916 61.5175 93.9163 55.808 93.9022 50.0446C93.888 44.2812 92.7352 38.5773 90.5099 33.2608C88.2847 27.9442 85.0309 23.1197 80.9356 19.0645ZM35.9375 40.625C36.8646 40.625 37.7709 40.8999 38.5417 41.415C39.3126 41.9301 39.9134 42.6621 40.2682 43.5187C40.623 44.3752 40.7158 45.3177 40.5349 46.227C40.3541 47.1363 39.9076 47.9715 39.2521 48.6271C38.5965 49.2826 37.7613 49.7291 36.852 49.9099C35.9427 50.0908 35.0002 49.998 34.1437 49.6432C33.2871 49.2884 32.5551 48.6876 32.04 47.9167C31.5249 47.1459 31.25 46.2396 31.25 45.3125C31.2485 44.6965 31.3686 44.0863 31.6037 43.5168C31.8387 42.9474 32.1839 42.4301 32.6195 41.9945C33.0551 41.5589 33.5724 41.2137 34.1418 40.9787C34.7113 40.7436 35.3215 40.6235 35.9375 40.625ZM68.6856 61.3613C66.3418 69.2324 58.8809 75 50.0098 75C41.1387 75 33.6777 69.2324 31.3145 61.3613C31.2484 61.1269 31.238 60.8803 31.2841 60.6412C31.3303 60.4021 31.4317 60.1771 31.5802 59.9841C31.7288 59.7911 31.9204 59.6356 32.1398 59.5298C32.3592 59.4241 32.6002 59.371 32.8438 59.375H67.1582C67.4016 59.3713 67.6424 59.4246 67.8615 59.5305C68.0806 59.6364 68.272 59.792 68.4203 59.9849C68.5687 60.1778 68.6699 60.4027 68.716 60.6417C68.762 60.8807 68.7516 61.1271 68.6856 61.3613ZM64.0625 50C63.1354 50 62.2291 49.7251 61.4583 49.21C60.6874 48.6949 60.0866 47.9629 59.7318 47.1063C59.377 46.2498 59.2842 45.3073 59.4651 44.398C59.6459 43.4887 60.0924 42.6535 60.7479 41.9979C61.4035 41.3424 62.2387 40.8959 63.148 40.7151C64.0573 40.5342 64.9998 40.627 65.8563 40.9818C66.7129 41.3366 67.4449 41.9374 67.96 42.7083C68.4751 43.4791 68.75 44.3854 68.75 45.3125C68.7516 45.9285 68.6314 46.5387 68.3963 47.1082C68.1613 47.6776 67.8161 48.1949 67.3805 48.6305C66.9449 49.0661 66.4276 49.4113 65.8582 49.6463C65.2887 49.8814 64.6785 50.0015 64.0625 50Z" fill="black"/>
</svg>
