<svg width="100" height="100" viewBox="0 0 100 100" fill="none" xmlns="http://www.w3.org/2000/svg">
<rect width="100" height="100" fill="#F5F5F5"/>
<g clip-path="url(#clip0_2_5)">
<mask id="mask0_2_5" style="mask-type:luminance" maskUnits="userSpaceOnUse" x="0" y="0" width="100" height="100">
<path d="M0 0H100V100H0V0Z" fill="white"/>
</mask>
<g mask="url(#mask0_2_5)">
<path fill-rule="evenodd" clip-rule="evenodd" d="M0 0H100V100H0V0ZM38.9875 89.9979C38.715 89.9728 38.4501 89.8943 38.2079 89.7667C37.9658 89.6392 37.7511 89.4653 37.5762 89.2548C37.4013 89.0443 37.2696 88.8014 37.1886 88.54C37.1076 88.2786 37.0789 88.0038 37.1042 87.7312L38.775 69.5729L47.2021 74.0312L49.1396 62.3771C49.2305 61.8317 49.5343 61.3448 49.9842 61.0235C50.4341 60.7021 50.9932 60.5726 51.5385 60.6635C52.0839 60.7544 52.5708 61.0582 52.8922 61.5081C53.2135 61.958 53.343 62.5171 53.2521 63.0625L50.3646 80.4167L42.3521 76.1792L41.2521 88.1146C41.2014 88.6646 40.9343 89.1719 40.5097 89.5251C40.085 89.8782 39.5375 90.0483 38.9875 89.9979ZM10.6042 59.15C10.3653 59.2835 10.1551 59.4628 9.98555 59.6775C9.81598 59.8923 9.69037 60.1383 9.61589 60.4016C9.54141 60.6649 9.51952 60.9403 9.55147 61.212C9.58341 61.4838 9.66857 61.7466 9.80208 61.9854C9.93559 62.2243 10.1148 62.4345 10.3296 62.604C10.5443 62.7736 10.7904 62.8992 11.0537 62.9737C11.317 63.0482 11.5924 63.0701 11.8641 63.0381C12.1359 63.0062 12.3987 62.921 12.6375 62.7875L23.7292 56.5875L24.8187 66.0333L41.3958 58.2979C41.8879 58.0589 42.2662 57.636 42.4491 57.1205C42.632 56.605 42.6048 56.0382 42.3734 55.5426C42.142 55.0469 41.7249 54.6622 41.2122 54.4714C40.6996 54.2806 40.1325 54.2991 39.6333 54.5229L28.2937 59.8146L27.1521 49.9021L10.6042 59.15ZM19.4854 19.9C19.6274 19.666 19.814 19.4623 20.0347 19.3005C20.2554 19.1387 20.5058 19.022 20.7717 18.957C21.0375 18.892 21.3135 18.88 21.584 18.9217C21.8544 18.9634 22.114 19.058 22.3479 19.2L38.9458 29.2729L30.6583 35.3208L41.2187 42.8354C41.6691 43.1559 41.9736 43.6421 42.0654 44.1871C42.1573 44.7322 42.0288 45.2913 41.7083 45.7417C41.3879 46.192 40.9016 46.4965 40.3566 46.5884C39.8116 46.6802 39.2524 46.5517 38.8021 46.2312L23.5333 35.3646L31.4417 29.5937L20.1854 22.7604C19.7135 22.4737 19.3747 22.0114 19.2434 21.4751C19.1122 20.9387 19.1992 20.3722 19.4854 19.9ZM66.8042 13.5333C66.9 12.9891 66.7758 12.429 66.4587 11.9764C66.1417 11.5238 65.6578 11.2157 65.1135 11.1198C64.5693 11.0239 64.0093 11.1482 63.5566 11.4652C63.104 11.7823 62.7959 12.2662 62.7 12.8104L60.6562 24.4104L53.1292 19.5917L48.8667 36.4542C48.7996 36.7195 48.7855 36.9955 48.8252 37.2664C48.8648 37.5372 48.9574 37.7976 49.0976 38.0326C49.2379 38.2677 49.4231 38.4728 49.6426 38.6363C49.8621 38.7997 50.1117 38.9184 50.3771 38.9854C50.6425 39.0524 50.9184 39.0665 51.1893 39.0269C51.4601 38.9873 51.7205 38.8947 51.9555 38.7544C52.1906 38.6142 52.3957 38.429 52.5592 38.2095C52.7227 37.99 52.8413 37.7404 52.9083 37.475L55.7521 26.2187L63.675 31.2875L66.8042 13.5333ZM91.3604 40.3396C91.4921 40.5795 91.5752 40.843 91.605 41.1151C91.6348 41.3871 91.6107 41.6624 91.5341 41.9251C91.4574 42.1878 91.3298 42.4329 91.1585 42.6463C90.9871 42.8597 90.7754 43.0372 90.5354 43.1687L74.6708 51.8708L73.6625 42.4771L63.0437 47.3312C62.5409 47.5608 61.9675 47.5813 61.4497 47.3881C60.9318 47.1949 60.5119 46.8038 60.2823 46.301C60.0527 45.7982 60.0323 45.2248 60.2255 44.7069C60.4187 44.1891 60.8097 43.7692 61.3125 43.5396L77.1875 36.2854L78.1458 45.2104L88.5312 39.5146C88.7712 39.3829 89.0347 39.2998 89.3067 39.27C89.5788 39.2402 89.854 39.2643 90.1168 39.3409C90.3795 39.4176 90.6245 39.5452 90.8379 39.7165C91.0513 39.8879 91.2289 40.0996 91.3604 40.3396ZM77.6875 78.8021C77.9214 78.9441 78.181 79.0386 78.4515 79.0803C78.7219 79.1219 78.9979 79.1099 79.2637 79.0449C79.5295 78.9799 79.7799 78.8632 80.0006 78.7014C80.2213 78.5397 80.408 78.336 80.55 78.1021C80.692 77.8682 80.7865 77.6086 80.8282 77.3381C80.8699 77.0677 80.8578 76.7917 80.7928 76.5259C80.7278 76.26 80.6111 76.0096 80.4493 75.7889C80.2876 75.5682 80.0839 75.3816 79.85 75.2396L69.5292 68.975L76.8937 63.6L62.4917 53.35C62.0413 53.0295 61.4822 52.9011 60.9371 52.9929C60.3921 53.0847 59.9059 53.3893 59.5854 53.8396C59.2649 54.2899 59.1365 54.8491 59.2283 55.3941C59.3201 55.9391 59.6247 56.4254 60.075 56.7458L69.7687 63.6417L62.025 69.2958L77.6875 78.8021Z" fill="black"/>
</g>
</g>
<defs>
<clipPath id="clip0_2_5">
<rect width="100" height="100" fill="white"/>
</clipPath>
</defs>
</svg>
