<svg width="163" height="154" viewBox="0 0 163 154" fill="none" xmlns="http://www.w3.org/2000/svg">
<rect width="163" height="154" fill="#F5F5F5"/>
<path d="M161.5 77C161.5 118.618 125.764 152.5 81.5 152.5C37.2358 152.5 1.5 118.618 1.5 77C1.5 35.3816 37.2358 1.5 81.5 1.5C125.764 1.5 161.5 35.3816 161.5 77Z" fill="white" stroke="#545353" stroke-width="3"/>
<g clip-path="url(#clip0_3_28)">
<path d="M122.571 118.071V121.357C122.571 121.802 122.395 122.187 122.041 122.512C121.688 122.837 121.269 123 120.786 123H45.7857C45.3021 123 44.8836 122.837 44.5301 122.512C44.1767 122.187 44 121.802 44 121.357V118.071C44 117.626 44.1767 117.241 44.5301 116.916C44.8836 116.591 45.3021 116.429 45.7857 116.429H120.786C121.269 116.429 121.688 116.591 122.041 116.916C122.395 117.241 122.571 117.626 122.571 118.071ZM108.286 63.8571C108.286 66.5268 107.83 68.9911 106.919 71.25C106.007 73.5089 104.817 75.4342 103.347 77.0257C101.878 78.6172 100.25 80.1231 98.4643 81.5435C96.6786 82.9639 94.8929 84.2902 93.1071 85.5223C91.3214 86.7545 89.6938 87.9866 88.2243 89.2188C86.7548 90.4509 85.5644 91.8456 84.6529 93.4029C83.7414 94.9602 83.2857 96.6116 83.2857 98.3571C83.2857 101.643 84.532 105.476 87.0246 109.857L86.8013 109.806L86.8571 109.857C83.5089 108.454 80.5327 107.033 77.9286 105.596C75.3244 104.158 72.7481 102.447 70.1998 100.462C67.6514 98.4769 65.5402 96.3806 63.8661 94.173C62.192 91.9654 60.8434 89.3899 59.8203 86.4464C58.7972 83.503 58.2857 80.3542 58.2857 77C58.2857 74.3304 58.7414 71.8661 59.6529 69.6071C60.5644 67.3482 61.7548 65.423 63.2243 63.8315C64.6938 62.24 66.3214 60.734 68.1071 59.3136C69.8929 57.8932 71.6786 56.567 73.4643 55.3348C75.25 54.1027 76.8776 52.8705 78.3471 51.6384C79.8166 50.4063 81.0071 49.0115 81.9185 47.4542C82.83 45.8969 83.2857 44.2455 83.2857 42.5C83.2857 39.2827 82.058 35.4494 79.6027 31L79.7701 31.0513L79.7143 31C83.0625 32.4033 86.0387 33.8237 88.6429 35.2612C91.247 36.6987 93.8233 38.41 96.3717 40.3951C98.92 42.3802 101.031 44.4766 102.705 46.6842C104.379 48.8917 105.728 51.4673 106.751 54.4107C107.774 57.3542 108.286 60.503 108.286 63.8571Z" fill="black"/>
<rect x="39" y="115" width="84" height="16" fill="white"/>
</g>
<defs>
<clipPath id="clip0_3_28">
<rect width="78.58" height="100" fill="white" transform="translate(42 27)"/>
</clipPath>
</defs>
</svg>
